<svg id="Layer_1" width="320" height="320" data-name="Layer 1" xmlns="http://www.w3.org/2000/svg" xmlns:xlink="http://www.w3.org/1999/xlink" viewBox="0 0 259.54 297.69"><defs><style>.cls-1,.cls-2,.cls-3,.cls-4,.cls-5{fill-rule:evenodd;}.cls-1{fill:url(#linear-gradient);}.cls-2{fill:#161e25;}.cls-3{fill:#e3bead;}.cls-4{fill:#5c605d;}.cls-5{fill:#fff;}</style><linearGradient id="linear-gradient" x1="10388.46" y1="-20284.79" x2="10388.51" y2="-11241.58" gradientTransform="matrix(0.03, 0, 0, -0.03, -117.94, -227.59)" gradientUnits="userSpaceOnUse"><stop offset="0" stop-color="#414f3d"/><stop offset="1" stop-color="#7c8b81"/></linearGradient></defs><path class="cls-1" d="M65.74,144.81c2.3-12.49-1.53-20.12-1.53-20.12-13.79-63.8,42.13-72.38,45.58-69.26s-2.87,9.1-1,15.34,15.51,23.76,15.51,23.76c17.81-5,31.79-2.26,42.33,1.21a43.41,43.41,0,0,0,9.38,1.85,43.41,43.41,0,0,0,9.38-1.85C196,92.27,210,89.5,227.76,94.53c0,0,13.6-17.52,15.51-23.76s-4.4-12.22-1-15.34,59.36,5.46,45.57,69.26c0,0-3.83,7.63-1.53,20.12,11.5,62.43,38.62,91.47-18.45,136.7-18.38,14.57-26,17.69-33.29,31.56-5.68,10.81-25.26,32.78-58.57,34.07-33.31-1.29-52.89-23.26-58.57-34.07-7.28-13.87-14.91-17-33.29-31.56C27.12,236.28,54.25,207.24,65.74,144.81Z" transform="translate(-46.28 -52.22)"/><path class="cls-2" d="M63,144.31c2.13-11.58-1.27-18.36-1.28-18.38l-.17-.35-.07-.3c-6-27.56.71-45.34,10.8-56.48A51.08,51.08,0,0,1,86.43,57.93,54.14,54.14,0,0,1,100,53c5.74-1.24,10.33-.77,11.66.43,3.12,2.83,2,6,.79,9.66-.76,2.22-1.62,4.75-1,6.92,1.46,4.75,10.71,17.16,13.94,21.41a71.52,71.52,0,0,1,23-2.19,77.84,77.84,0,0,1,19.11,3.93,32.87,32.87,0,0,0,4.29,1.09c1.44.28,2.85.48,4.22.62,1.37-.14,2.79-.34,4.22-.62a33,33,0,0,0,4.3-1.09,77.66,77.66,0,0,1,19.1-3.93,71.5,71.5,0,0,1,23,2.19c3.24-4.25,12.48-16.66,13.94-21.41.66-2.17-.2-4.7-1-6.92-1.26-3.69-2.33-6.83.79-9.66,1.33-1.2,5.93-1.67,11.66-.43a54.05,54.05,0,0,1,13.56,5A51,51,0,0,1,279.8,68.8c10.09,11.14,16.76,28.92,10.8,56.48l-.06.3-.18.35s-3.41,6.8-1.28,18.38c2.47,13.42,5.71,25.41,8.66,36.33,10.9,40.36,18,66.52-28.12,103-4.4,3.49-8.12,6.28-11.39,8.72-10.29,7.71-15.89,11.9-21.16,22-3.53,6.72-12.15,17.55-25.77,25.47a75.09,75.09,0,0,1-35.15,10.09H176a75.13,75.13,0,0,1-35.15-10.09c-13.61-7.92-22.23-18.75-25.77-25.47-5.27-10.05-10.86-14.24-21.16-22-3.26-2.44-7-5.23-11.39-8.72-46.08-36.52-39-62.68-28.12-103,3-10.92,6.19-22.91,8.66-36.33Zm3.85-20.43c.8,1.84,3.74,9.75,1.59,21.43-2.53,13.77-5.78,25.8-8.74,36.76-10.33,38.24-17,63,26.19,97.28,4.25,3.37,8,6.17,11.28,8.63,10.94,8.19,16.88,12.65,22.74,23.81,3.2,6.09,11.08,15.92,23.65,23.24a69.56,69.56,0,0,0,32.47,9.34A69.49,69.49,0,0,0,208.52,335c12.58-7.32,20.45-17.15,23.65-23.24C238,300.63,244,296.17,254.92,288c3.28-2.46,7-5.26,11.28-8.63,43.21-34.25,36.51-59,26.19-97.28-3-11-6.21-23-8.75-36.76-2.15-11.68.8-19.59,1.59-21.43,5.42-25.31-.51-41.42-9.53-51.38a45.41,45.41,0,0,0-12.6-9.67A48.46,48.46,0,0,0,251,58.37c-4-.86-6.52-1.13-6.78-.89-.42.37.12,1.94.75,3.78,1,3,2.19,6.42,1,10.32-2.06,6.72-15.94,24.6-16,24.65l-1.15,1.46-1.78-.5a66.48,66.48,0,0,0-22.95-2.48,73.09,73.09,0,0,0-17.76,3.66,38.36,38.36,0,0,1-5,1.27c-1.63.32-3.32.54-5,.71l-.26,0-.26,0c-1.68-.17-3.37-.39-5-.71a38.36,38.36,0,0,1-5-1.27A73.09,73.09,0,0,0,148,94.71a66.5,66.5,0,0,0-22.95,2.48l-1.78.5-1.14-1.46s-13.92-17.93-16-24.65c-1.2-3.9,0-7.32,1-10.32.62-1.84,1.16-3.41.74-3.78-.25-.24-2.8,0-6.78.89A48.6,48.6,0,0,0,89,62.83,45.71,45.71,0,0,0,76.4,72.5c-9,10-14.94,26.07-9.53,51.38Z" transform="translate(-46.28 -52.22)"/><path class="cls-2" d="M176.05,211.28c-6.43.53-17,2.43-26.31,8.85,0,0-1.9,13.7,22.54,29.83,0,0,.87,8-.34,12.48,0,0-36.24,27.05-65.37-3.47,0,0,8,26,30.86,35.72,0,0-2,40.8,38.62,39.53,40.63,1.27,38.62-39.53,38.62-39.53C237.56,285,245.53,259,245.53,259c-29.13,30.52-65.36,3.47-65.36,3.47-1.22-4.51-.35-12.48-.35-12.48,24.45-16.13,22.54-29.83,22.54-29.83-9.3-6.42-19.88-8.32-26.31-8.85Z" transform="translate(-46.28 -52.22)"/><path class="cls-3" d="M176.05,278.83c-6.05-.88-16.45-1.56-25.27,2,0,0-15.87,47,25.27,47.33,41.14-.34,25.27-47.33,25.27-47.33C192.5,277.27,182.1,278,176.05,278.83Z" transform="translate(-46.28 -52.22)"/><path class="cls-4" d="M92.86,72.68s14.57,18.37,14.57,25.66-14.57,10.75-23.58,11.44S73.1,80,92.86,72.68Z" transform="translate(-46.28 -52.22)"/><path class="cls-4" d="M259.24,72.68s-14.57,18.37-14.57,25.66,14.57,10.75,23.58,11.44,10.75-29.82-9-37.1Z" transform="translate(-46.28 -52.22)"/><path class="cls-4" d="M109.78,146.46s.32-2.89,2-4.15,24.41-4.63,29.15.1,15.89,18.1,8.52,24.94-12.1-2.53-15.36-6.1S122.67,148,109.78,146.46Zm132.54,0s-.31-2.89-2-4.15-24.41-4.63-29.15.1-15.88,18.1-8.52,24.94,12.1-2.53,15.36-6.1S229.43,148,242.32,146.46Z" transform="translate(-46.28 -52.22)"/><g id="_1956974840448" data-name=" 1956974840448"><path class="cls-2" d="M256.33,192.07s-4.64-4.57-10.6-10.26-18.86-9.39-23.06-7.75-13.42,10.92-16.9,22.53a27.52,27.52,0,0,0,6.61,1.81c2.42.12,8.65,6.14,17.48,6.84s18.26-10.68,18.26-10.68,6.75.21,8.21-2.49Z" transform="translate(-46.28 -52.22)"/><path class="cls-5" d="M224,181.76a3.47,3.47,0,1,0,3.14,3.77,3.46,3.46,0,0,0-3.14-3.77Z" transform="translate(-46.28 -52.22)"/><path class="cls-2" d="M95.77,192.07s4.64-4.57,10.6-10.26,18.87-9.39,23.06-7.75,13.42,10.92,16.9,22.53a27.52,27.52,0,0,1-6.61,1.81c-2.41.12-8.64,6.14-17.48,6.84S104,194.56,104,194.56s-6.76.21-8.22-2.49Z" transform="translate(-46.28 -52.22)"/><path class="cls-5" d="M128.15,181.76a3.47,3.47,0,1,1-3.14,3.77,3.47,3.47,0,0,1,3.14-3.77Z" transform="translate(-46.28 -52.22)"/></g></svg>